<svg width="160" height="22" viewBox="0 0 160 22" fill="none" xmlns="http://www.w3.org/2000/svg"><path d="M110.47 8.34c0-2.62-1.61-4.53-4.7-4.53H95.8V17.4h3.27v-4.64h3.88l3.8 4.64h3.7v-.3l-3.7-4.42c2.32-.47 3.72-2.16 3.72-4.33zm-5.06 1.68h-6.33V6.63h6.33c1.17 0 1.92.62 1.92 1.7 0 1.1-.73 1.69-1.92 1.69zM160 3.81h-3.07v5.16h-8.26V3.8h-3.32V17.4h3.32v-5.36h8.26v5.36H160V3.81zM87.03 3.81l-3.65 11.43h-.2L79.5 3.8h-5.84V17.4h3.13V6.24h.19l3.65 11.16h5.03l3.67-11.16h.19V17.4h3.22V3.81h-5.72zM51.34 9.37l-4.47-.44c-1.14-.12-1.8-.46-1.8-1.21 0-.73.7-1.33 3.52-1.33 2.5 0 4.8.54 6.8 1.5V4.86a15.7 15.7 0 00-6.98-1.42c-3.86 0-6.53 1.6-6.53 4.35 0 2.3 1.57 3.57 4.7 3.92 1.15.12 3.08.3 4.44.4 1.48.12 1.9.58 1.9 1.25 0 .93-1.03 1.49-3.65 1.49a14.1 14.1 0 01-7.27-2.1v3.13c1.54 1.04 4.2 1.9 7.17 1.9 4.21 0 6.92-1.62 6.92-4.53.03-2.2-1.42-3.53-4.75-3.88zM58.27 3.81V17.4h12.66v-2.78H61.4v-2.75h9.37V9.12H61.4V6.59h9.53V3.81H58.27zM138.57 9.37l-4.47-.44c-1.14-.12-1.8-.46-1.8-1.21 0-.73.7-1.33 3.52-1.33 2.5 0 4.8.54 6.8 1.5V4.86a15.7 15.7 0 00-6.98-1.42c-3.86 0-6.53 1.6-6.53 4.35 0 2.3 1.57 3.57 4.7 3.92 1.15.12 3.08.3 4.44.4 1.48.12 1.9.58 1.9 1.25 0 .93-1.03 1.49-3.65 1.49a14.1 14.1 0 01-7.27-2.1v3.13c1.54 1.04 4.2 1.9 7.17 1.9 4.21 0 6.92-1.62 6.92-4.53.03-2.2-1.42-3.53-4.75-3.88zM123.6 3.81v6.96c0 2.63-1.6 4.08-4 4.08-2.42 0-4-1.42-4-4.12V3.8h-3.26v6.6c0 4.94 3.07 7.38 7.31 7.38 4.07 0 7.23-2.34 7.23-7.21V3.81h-3.28zM30.65 10.53c0 .65-.33.76-1.17.76-.88 0-1.04-.15-1.14-.82-.17-1.7-1.33-3.15-3.26-3.31-.62-.06-.77-.29-.77-1.05 0-.71.11-1.05.66-1.05a5.61 5.61 0 015.68 5.47zm4.89 0C35.54 5.4 32.08 0 24.07 0H8.17c-.32 0-.52.16-.52.46 0 .16.12.3.23.39.58.45 1.44.96 2.57 1.53 1.1.55 1.96.9 2.82 1.26.36.15.5.3.5.5 0 .3-.21.47-.6.47H.55c-.38 0-.55.24-.55.48 0 .2.07.37.24.55a26.57 26.57 0 005.04 3.85 72.66 72.66 0 006.7 3.7c.36.16.47.34.47.54-.02.23-.2.42-.6.42H6.08c-.32 0-.51.18-.51.44 0 .15.12.34.28.49 1.32 1.2 3.42 2.5 6.23 3.69a29.43 29.43 0 0011.82 2.55c8.1 0 11.65-6.05 11.65-10.8zm-10.57 7.56a7.61 7.61 0 01-7.6-7.58 7.56 7.56 0 017.6-7.46 7.53 7.53 0 110 15.04z" fill="#fff"/></svg>