<svg width="205" height="132" viewBox="0 0 205 132" fill="none" xmlns="http://www.w3.org/2000/svg"><path d="M19.68 6.66l-4.37 1.15a4.27 4.27 0 00-4.47-3.55c-2.7 0-4.25 1.1-4.25 2.94 0 2.19 2.47 2.67 5.26 3.3 3.68.8 7.9 1.96 7.9 7.04 0 4.5-3.62 7.32-8.91 7.32-5.33 0-8.53-2.44-9.7-6.79l4.4-1.2c.67 2.92 2.6 4.12 5.33 4.12 2.47 0 4.44-.98 4.44-3.3 0-2.25-2.41-2.72-5.17-3.32-3.7-.8-8.05-1.75-8.05-6.98C2.1 3.34 6 .45 10.87.45c4.66 0 7.77 2.22 8.81 6.21zm10.9 18.2c-5.26 0-8.4-3.46-8.4-8.18 0-4.82 3.4-8.37 8.22-8.37 4.65 0 7.89 3.14 7.89 7.7 0 .57-.07 1.2-.2 1.81H26.29c.4 2.47 2.02 3.58 4.3 3.58 2.1 0 3.3-.92 3.84-2.28l3.7.76c-.94 3.14-3.7 4.98-7.53 4.98zm-.18-13.22c-1.84 0-3.43.98-4 3.1h7.67c-.35-2.02-1.65-3.1-3.67-3.1zm11.4 12.9V8.66h3.62l.22 1.55a5.17 5.17 0 014.03-1.9c1.87 0 3.51.8 4.5 2.35a5.87 5.87 0 014.75-2.35c3.1 0 5.64 2.13 5.64 6.18v10.05h-4V14.8c0-1.84-1-2.79-2.53-2.79-1.42 0-2.85.7-2.85 2.79v9.73h-4V14.8c0-1.84-1-2.79-2.53-2.79-1.4 0-2.85.7-2.85 2.79v9.73h-4zm27.06 0V8.66h3.74l.25 1.87a5.06 5.06 0 014.34-2.15c.57 0 .95.06 1.59.22l-.48 3.93a6.22 6.22 0 00-1.65-.22c-2.12 0-3.77 1.45-3.77 4.02v8.2h-4.02zM85.04 8.66v9.5c0 2 1.14 3.02 3.13 3.02 1.56 0 3.24-.86 3.24-3.4V8.67h4v15.88h-3.6l-.18-1.55c-1.05 1.2-2.41 1.87-4.56 1.87-3.27 0-6.03-2.13-6.03-6.31V8.66h4zm20.63 16.2c-3.55 0-6.34-1.37-7.23-4.76l4.09-.82c.31 1.65 1.49 2.34 3.14 2.34 1.61 0 2.6-.63 2.6-1.77 0-1.2-1.72-1.36-3.62-1.71-2.57-.41-5.58-1.11-5.58-4.76 0-2.94 2.8-5.07 6.63-5.07 3.58 0 5.73 1.59 6.65 4.4l-3.96.83c-.31-1.36-1.27-2-2.7-2-1.58 0-2.53.7-2.53 1.65 0 1.18 1.46 1.43 3.27 1.71 2.66.45 5.95.99 5.95 4.7 0 3-2.21 5.26-6.71 5.26zm9.83-.32V.77h4.03v9.32a6.37 6.37 0 014.5-1.78c3.36 0 6.24 2.28 6.24 6.66v9.57h-4V15.6c0-2.38-1.36-3.58-3.23-3.58-1.68 0-3.51.92-3.51 3.58v8.94h-4.03zM135.7.77h4.73l-.63 16.04h-3.46L135.71.77zm2.35 24.09c-1.55 0-2.66-1.02-2.66-2.57 0-1.59 1.11-2.63 2.66-2.63 1.59 0 2.7 1.04 2.7 2.63 0 1.55-1.11 2.57-2.7 2.57z" fill="#FF0"/><path d="M6.12 47.6c0 5 2.88 8.3 7.48 8.3 3.61 0 6.46-2.07 6.53-5.1h-8.78v-3.84h13.28v2.06c0 6.5-4.47 10.84-11.07 10.84-6.9 0-11.94-5.2-11.94-12.27 0-7 5.07-12.14 11.98-12.14 5.32 0 9.22 2.89 10.46 7.2l-4.22 1.2c-.86-2.79-3.01-4.4-6.24-4.4-4.47 0-7.48 3.2-7.48 8.14zm29.67 12.26c-5.27 0-8.4-3.46-8.4-8.18 0-4.82 3.39-8.37 8.2-8.37 4.66 0 7.9 3.14 7.9 7.7 0 .57-.07 1.2-.2 1.81H31.48c.42 2.47 2.03 3.58 4.32 3.58 2.09 0 3.3-.92 3.83-2.28l3.7.76c-.94 3.14-3.7 4.98-7.53 4.98zm-.2-13.22c-1.83 0-3.42.98-3.99 3.1h7.67c-.35-2.02-1.65-3.1-3.67-3.1zm9.26-.63l5.93-5.96h1.08v3.61h5.51v3.49h-5.51v6.75c0 1.65.82 2.28 2.25 2.28.7 0 1.36-.19 2.15-.54l.89 3.3c-1.2.6-2.57.92-3.93.92-3.36 0-5.36-1.87-5.36-5.04v-7.67h-3V46zm20.12 0l5.93-5.96h1.07v3.61h5.52v3.49h-5.52v6.75c0 1.65.83 2.28 2.25 2.28.7 0 1.37-.19 2.16-.54l.89 3.3c-1.2.6-2.57.92-3.93.92-3.36 0-5.36-1.87-5.36-5.04v-7.67h-3.01V46zm15.3 13.53V35.77h4.03v9.32a6.37 6.37 0 014.5-1.78c3.36 0 6.25 2.28 6.25 6.66v9.57h-4V50.6c0-2.38-1.36-3.58-3.23-3.58-1.68 0-3.52.92-3.52 3.58v8.94h-4.02zm26.24.32c-5.26 0-8.4-3.46-8.4-8.18 0-4.82 3.39-8.37 8.2-8.37 4.67 0 7.9 3.14 7.9 7.7 0 .57-.06 1.2-.2 1.81H102.2c.4 2.47 2.03 3.58 4.3 3.58 2.1 0 3.3-.92 3.84-2.28l3.71.76c-.95 3.14-3.7 4.98-7.54 4.98zm-.2-13.22c-1.83 0-3.42.98-3.99 3.1H110c-.34-2.02-1.64-3.1-3.67-3.1zm24 13.22c-3.56 0-6.35-1.37-7.23-4.76l4.09-.82c.31 1.65 1.48 2.34 3.13 2.34 1.62 0 2.6-.63 2.6-1.77 0-1.2-1.71-1.36-3.61-1.71-2.57-.41-5.58-1.11-5.58-4.76 0-2.94 2.79-5.07 6.62-5.07 3.59 0 5.74 1.59 6.66 4.4l-3.96.83c-.32-1.36-1.27-2-2.7-2-1.58 0-2.53.7-2.53 1.65 0 1.18 1.46 1.43 3.26 1.71 2.66.45 5.96.99 5.96 4.7 0 3-2.22 5.26-6.72 5.26zm19.46-.32l-.25-2.22a6.29 6.29 0 01-5.23 2.54c-2.85 0-5.13-1.65-5.13-4.7 0-3.26 2.78-4.53 6.14-5.29l4.06-.92c-.35-1.61-1.46-2.28-3.07-2.28-1.84 0-3.01.8-3.43 2.44l-3.8-.7c.76-3 3.3-5.1 7.29-5.1 4.21 0 6.97 2.22 6.97 6.66v9.57h-3.55zm-6.53-4.63c0 1.08.73 1.65 1.9 1.65 2.13 0 4.32-1.36 4.32-4.25v-.38l-3.94.99c-1.36.31-2.28.79-2.28 2zm14.38 4.63V43.66h3.62l.22 1.55a5.17 5.17 0 014.02-1.9c1.87 0 3.52.8 4.5 2.35a5.87 5.87 0 014.76-2.35c3.1 0 5.64 2.13 5.64 6.18v10.05h-4V49.8c0-1.84-1-2.79-2.53-2.79-1.42 0-2.85.7-2.85 2.79v9.73h-4V49.8c0-1.84-1-2.79-2.53-2.79-1.4 0-2.85.7-2.85 2.79v9.73h-4zm34.25.32c-5.26 0-8.4-3.46-8.4-8.18 0-4.82 3.4-8.37 8.21-8.37 4.66 0 7.9 3.14 7.9 7.7 0 .57-.07 1.2-.2 1.81h-11.82c.41 2.47 2.03 3.58 4.31 3.58 2.1 0 3.3-.92 3.84-2.28l3.7.76c-.95 3.14-3.7 4.98-7.54 4.98zm-.19-13.22c-1.84 0-3.42.98-4 3.1h7.68c-.35-2.02-1.65-3.1-3.68-3.1zM7.92 94.86c-3.55 0-6.34-1.37-7.22-4.76l4.09-.82c.31 1.65 1.49 2.34 3.13 2.34 1.62 0 2.6-.63 2.6-1.77 0-1.2-1.7-1.36-3.61-1.71-2.57-.41-5.58-1.11-5.58-4.76 0-2.94 2.79-5.07 6.63-5.07 3.58 0 5.73 1.59 6.65 4.4l-3.96.83c-.32-1.36-1.27-2-2.7-2-1.58 0-2.53.7-2.53 1.65 0 1.18 1.46 1.43 3.26 1.71 2.67.45 5.96.99 5.96 4.7 0 3-2.22 5.26-6.72 5.26zm13.45-16.2v9.5c0 2 1.14 3.02 3.14 3.02 1.55 0 3.23-.86 3.23-3.4v-9.12h4v15.88h-3.59l-.19-1.55c-1.04 1.2-2.4 1.87-4.56 1.87-3.26 0-6.02-2.13-6.02-6.31v-9.89h4zm13.82 7.96c0-4.79 3.51-8.3 8.3-8.3 3.87 0 6.72 2.27 7.45 5.67l-4 .72A3.4 3.4 0 0043.46 82c-2.41 0-4.09 1.77-4.09 4.63 0 2.82 1.62 4.6 4.02 4.6 2 0 3.3-1.09 3.68-2.77l3.96.67c-.57 3.26-3.61 5.74-7.6 5.74a8 8 0 01-8.24-8.24zm17.64 0c0-4.79 3.52-8.3 8.3-8.3 3.87 0 6.72 2.27 7.45 5.67l-4 .72A3.4 3.4 0 0061.1 82c-2.4 0-4.09 1.77-4.09 4.63 0 2.82 1.62 4.6 4.03 4.6 2 0 3.3-1.09 3.67-2.77l3.96.67c-.57 3.26-3.6 5.74-7.6 5.74a8 8 0 01-8.24-8.24zm26.04 8.24c-5.26 0-8.4-3.46-8.4-8.18 0-4.82 3.4-8.37 8.2-8.37 4.67 0 7.9 3.14 7.9 7.7 0 .57-.06 1.2-.19 1.81H74.56c.41 2.47 2.03 3.58 4.3 3.58 2.1 0 3.3-.92 3.84-2.28l3.71.76c-.95 3.14-3.7 4.98-7.54 4.98zm-.2-13.22c-1.83 0-3.41.98-3.98 3.1h7.67c-.35-2.02-1.65-3.1-3.68-3.1zM95.7 94.86c-3.55 0-6.34-1.37-7.23-4.76l4.1-.82c.3 1.65 1.48 2.34 3.13 2.34 1.62 0 2.6-.63 2.6-1.77 0-1.2-1.71-1.36-3.61-1.71-2.57-.41-5.58-1.11-5.58-4.76 0-2.94 2.79-5.07 6.62-5.07 3.58 0 5.74 1.59 6.66 4.4l-3.96.83c-.32-1.36-1.27-2-2.7-2-1.58 0-2.53.7-2.53 1.65 0 1.18 1.45 1.43 3.26 1.71 2.66.45 5.96.99 5.96 4.7 0 3-2.22 5.26-6.72 5.26zm15.44 0c-3.55 0-6.33-1.37-7.22-4.76l4.09-.82c.31 1.65 1.49 2.34 3.13 2.34 1.62 0 2.6-.63 2.6-1.77 0-1.2-1.7-1.36-3.61-1.71-2.57-.41-5.58-1.11-5.58-4.76 0-2.94 2.8-5.07 6.63-5.07 3.58 0 5.73 1.59 6.65 4.4l-3.96.83c-.32-1.36-1.27-2-2.7-2-1.58 0-2.53.7-2.53 1.65 0 1.18 1.46 1.43 3.27 1.71 2.66.45 5.95.99 5.95 4.7 0 3-2.22 5.26-6.72 5.26zm-99.2 34.68l-.25-2.22a6.29 6.29 0 01-5.22 2.54c-2.86 0-5.14-1.65-5.14-4.7 0-3.26 2.79-4.53 6.15-5.29l4.06-.92c-.35-1.61-1.46-2.28-3.08-2.28-1.84 0-3 .8-3.42 2.44l-3.8-.7c.76-3 3.3-5.1 7.29-5.1 4.21 0 6.97 2.22 6.97 6.66v9.57h-3.55zm-6.52-4.63c0 1.08.73 1.65 1.9 1.65 2.12 0 4.31-1.36 4.31-4.25v-.38l-3.93.98c-1.36.32-2.28.8-2.28 2zm20 4.95c-3.56 0-6.35-1.37-7.24-4.76l4.1-.82c.31 1.65 1.48 2.34 3.13 2.34 1.62 0 2.6-.63 2.6-1.77 0-1.2-1.71-1.36-3.61-1.71-2.57-.42-5.58-1.11-5.58-4.76 0-2.94 2.79-5.07 6.62-5.07 3.58 0 5.74 1.59 6.66 4.4l-3.96.83c-.32-1.36-1.27-2-2.7-2-1.58 0-2.53.7-2.53 1.65 0 1.18 1.45 1.43 3.26 1.71 2.66.45 5.96.99 5.96 4.7 0 3-2.22 5.26-6.72 5.26zM40.04 116l5.93-5.96h1.08v3.61h5.51v3.49h-5.51v6.75c0 1.65.82 2.28 2.25 2.28.7 0 1.36-.19 2.15-.54l.9 3.3c-1.21.6-2.58.92-3.94.92-3.36 0-5.36-1.87-5.36-5.04v-7.67h-3V116zm15.31 13.53v-23.77h4.03v9.32a6.37 6.37 0 014.5-1.78c3.36 0 6.24 2.28 6.24 6.66v9.57h-4v-8.94c0-2.38-1.35-3.58-3.22-3.58-1.68 0-3.52.92-3.52 3.58v8.94h-4.03zm26.23.32c-5.26 0-8.4-3.46-8.4-8.18 0-4.82 3.4-8.37 8.21-8.37 4.66 0 7.9 3.14 7.9 7.7 0 .57-.07 1.2-.2 1.81H77.28c.41 2.47 2.03 3.58 4.31 3.58 2.1 0 3.3-.92 3.84-2.28l3.7.76c-.95 3.14-3.7 4.98-7.54 4.98zm-.19-13.22c-1.84 0-3.42.98-4 3.1h7.68c-.35-2.02-1.65-3.1-3.68-3.1zm11.41 12.9v-15.88h3.62l.22 1.55a5.17 5.17 0 014.02-1.9c1.87 0 3.52.8 4.5 2.35a5.87 5.87 0 014.76-2.35c3.1 0 5.64 2.13 5.64 6.18v10.05h-4v-9.73c0-1.84-1-2.79-2.53-2.79-1.43 0-2.85.7-2.85 2.79v9.73h-4v-9.73c0-1.84-1-2.79-2.53-2.79-1.4 0-2.85.7-2.85 2.79v9.73h-4z" fill="#fff"/></svg>