<svg width="159" height="38" viewBox="0 0 159 38" fill="none" xmlns="http://www.w3.org/2000/svg"><rect width="159" height="38" rx="19" fill="#FF642D"/><path d="M36.32 25V14.65h-3.65V13h9.1v1.65H38.1V25h-1.79zm7.56 0V13h4.48c2.24 0 3.79 1.4 3.79 3.47 0 1.65-1 2.77-2.43 3.17l3.5 5.36h-2.08l-3.31-5.06h-2.16V25h-1.8zm4.48-10.38h-2.7v3.7h2.66c1.24 0 2.04-.74 2.04-1.85 0-1.1-.8-1.85-2-1.85zM57.32 25v-5.23L52.97 13h2.08l3.2 5.06L61.46 13h2l-4.35 6.77V25h-1.8zm11.54 0V13h1.8v12h-1.8zm7.54 0V14.65h-3.65V13h9.09v1.65h-3.65V25H76.4zm11.07 0V13h7.42v1.62h-5.63v3.44h4.15v1.61h-4.15V25h-1.8zm9.48 0V13h4.48c2.24 0 3.8 1.4 3.8 3.47 0 1.65-1 2.77-2.44 3.17l3.5 5.36h-2.07l-3.31-5.06h-2.16V25h-1.8zm4.48-10.38h-2.68v3.7h2.65c1.23 0 2.03-.74 2.03-1.85 0-1.1-.8-1.85-2-1.85zM108.31 25V13h7.67v1.62h-5.88v3.28h4.13v1.61h-4.13v3.87h6.04V25h-7.83zm10.07 0V13h7.66v1.62h-5.87v3.28h4.13v1.61h-4.13v3.87h6.03V25h-7.82z" fill="#fff"/></svg>