<svg width="287" height="237" viewBox="0 0 287 237" fill="none" xmlns="http://www.w3.org/2000/svg"><g filter="url(#filter0_d_122_75104)"><rect x="11" y="11" width="366.83" height="208.51" rx="7.72" fill="#fff"/></g><path d="M37.15 109.58v-6.74h1.22v3.1h.08l2.63-3.1h1.5l-2.61 3.03 2.63 3.71h-1.47l-2.01-2.89-.75.89v2h-1.22zm8.08.1c-.5 0-.94-.1-1.3-.31a2.14 2.14 0 01-.85-.9c-.2-.4-.3-.86-.3-1.38a3 3 0 01.3-1.37 2.24 2.24 0 012.1-1.26c.3 0 .6.05.87.15.28.1.53.26.74.47.22.2.39.47.5.8.13.31.2.7.2 1.14v.36h-4.15v-.8h3c0-.23-.05-.43-.15-.61a1.08 1.08 0 00-1-.58 1.22 1.22 0 00-1.07.64c-.1.19-.16.4-.16.62v.7c0 .3.05.55.16.76.11.2.26.37.45.48.2.1.42.16.68.16.17 0 .33-.02.47-.07.14-.05.26-.12.37-.22.1-.1.18-.21.23-.36l1.11.13c-.07.3-.2.55-.4.77-.2.22-.44.38-.75.5-.3.12-.65.18-1.05.18zm3.86 1.8a2.44 2.44 0 01-.78-.13l.28-.92c.17.05.32.07.46.07s.26-.05.36-.13a.9.9 0 00.27-.4l.1-.28-1.84-5.16h1.27l1.16 3.82h.06l1.16-3.82h1.27l-2.02 5.67c-.1.26-.22.5-.38.68-.15.2-.34.34-.57.44-.22.1-.5.16-.8.16zm5.64-1.9l-1.43-5.05h1.21l.9 3.55h.04l.9-3.55h1.2l.92 3.53h.05l.87-3.53h1.22l-1.43 5.05h-1.24l-.95-3.41h-.07l-.95 3.41h-1.24zm8.77.1a2.21 2.21 0 01-2.13-1.24 3 3 0 01-.3-1.36c0-.53.1-.98.3-1.38.2-.39.49-.7.85-.91.36-.22.79-.33 1.28-.33.5 0 .92.11 1.28.33.37.22.65.52.84.91.2.4.3.85.3 1.38 0 .52-.1.97-.3 1.36-.2.4-.47.7-.84.92-.36.21-.79.32-1.28.32zm0-.95c.28 0 .5-.08.68-.22.18-.15.31-.35.4-.6.1-.25.14-.53.14-.84 0-.3-.05-.59-.14-.84a1.33 1.33 0 00-.4-.6c-.18-.15-.4-.22-.67-.22-.28 0-.5.07-.69.22-.18.15-.31.35-.4.6-.09.25-.13.53-.13.84 0 .31.04.59.13.84s.22.45.4.6c.19.14.41.22.69.22zm3.43.85v-5.05h1.16v.84h.05a1.26 1.26 0 011.25-.91 2.57 2.57 0 01.43.03v1.1a2.26 2.26 0 00-.55-.07c-.22 0-.42.04-.6.14a1.05 1.05 0 00-.54.95v2.97h-1.2zm5.35.1a1.91 1.91 0 01-1.81-1.2 3.32 3.32 0 01-.28-1.42c0-.56.1-1.03.28-1.42a1.94 1.94 0 012.54-1.03c.2.1.34.22.45.36.12.14.2.27.26.4h.05v-2.53h1.2v6.74H73.8v-.8h-.08a1.47 1.47 0 01-1.45.88zm.33-.99c.25 0 .47-.06.64-.2.18-.14.32-.33.4-.57.1-.25.15-.54.15-.86 0-.33-.05-.62-.14-.86a1.21 1.21 0 00-.4-.56c-.18-.13-.4-.2-.65-.2-.27 0-.49.07-.67.2-.17.15-.3.34-.4.58a2.4 2.4 0 00-.13.84c0 .31.04.6.13.84.1.25.23.44.4.58.19.14.4.21.67.21zm7.62-2.83l-1.08.12a.86.86 0 00-.47-.54 1.1 1.1 0 00-.46-.09c-.25 0-.46.06-.63.16-.17.11-.25.25-.25.42 0 .15.06.27.16.36.12.1.3.17.56.23l.86.18c.48.1.83.27 1.07.5.23.22.35.5.35.87 0 .32-.1.6-.28.84a1.8 1.8 0 01-.76.57c-.32.13-.7.2-1.12.2a2.6 2.6 0 01-1.5-.39c-.37-.26-.6-.62-.67-1.09l1.17-.1c.05.22.16.4.33.5.17.13.4.18.67.18.28 0 .51-.05.68-.17.17-.12.26-.26.26-.43a.45.45 0 00-.17-.36c-.1-.1-.28-.17-.51-.22l-.86-.18c-.49-.1-.85-.27-1.08-.5a1.25 1.25 0 01-.34-.92c0-.31.08-.58.25-.81.17-.23.41-.41.72-.54.3-.12.67-.19 1.07-.19.6 0 1.06.13 1.4.38.34.25.55.6.63 1.02zM151.25 102.84l1.75 5.3h.07l1.75-5.3h1.34l-2.37 6.74h-1.5l-2.38-6.74h1.34zm7.41 6.84a2.22 2.22 0 01-2.13-1.24 3 3 0 01-.29-1.36c0-.53.1-.98.3-1.38.2-.39.48-.7.84-.91.36-.22.79-.33 1.28-.33.5 0 .92.11 1.29.33.36.22.64.52.84.91.2.4.3.85.3 1.38 0 .52-.1.97-.3 1.36-.2.4-.48.7-.84.92-.37.21-.8.32-1.29.32zm0-.95c.28 0 .5-.08.68-.22.18-.15.31-.35.4-.6.1-.25.14-.53.14-.84 0-.3-.05-.59-.14-.84a1.33 1.33 0 00-.4-.6c-.18-.15-.4-.22-.67-.22s-.5.07-.69.22c-.18.15-.31.35-.4.6-.09.25-.13.53-.13.84 0 .31.04.59.13.84s.22.45.4.6c.19.14.42.22.69.22zm4.63-5.89v6.74h-1.2v-6.74h1.2zm4.44 4.62v-2.93h1.2v5.05h-1.16v-.9h-.05c-.12.29-.3.52-.56.7-.26.18-.58.27-.96.27a1.53 1.53 0 01-1.47-.87 2.29 2.29 0 01-.22-1.03v-3.22h1.2v3.03c0 .32.08.58.26.77.17.19.4.28.69.28a1.09 1.09 0 00.91-.51c.11-.17.16-.39.16-.64zm2.42 2.12v-5.05h1.14v.86h.06c.1-.3.28-.52.52-.68.25-.16.54-.25.87-.25.35 0 .63.09.87.25.24.17.4.4.5.68h.05c.11-.28.3-.5.57-.67.27-.17.58-.26.95-.26.46 0 .84.15 1.14.44.3.3.44.73.44 1.3v3.38h-1.2v-3.2c0-.32-.08-.55-.25-.7a.9.9 0 00-.6-.21.86.86 0 00-.68.27 1 1 0 00-.24.7v3.14h-1.17v-3.25a.84.84 0 00-.24-.63.83.83 0 00-.61-.23.86.86 0 00-.47.13.92.92 0 00-.33.36c-.09.16-.13.34-.13.55v3.07h-1.19zm10.56.1c-.51 0-.95-.1-1.32-.31a2.15 2.15 0 01-.84-.9c-.2-.4-.3-.86-.3-1.38 0-.52.1-.98.3-1.37a2.24 2.24 0 012.1-1.26c.3 0 .6.05.88.15a2 2 0 01.73.47c.22.2.39.47.5.8.13.31.2.7.2 1.14v.36h-4.15v-.8h3c0-.23-.05-.43-.15-.61a1.09 1.09 0 00-1-.58 1.22 1.22 0 00-1.07.64c-.1.19-.16.4-.16.62v.7c0 .3.06.55.16.76.11.2.26.37.45.48.2.1.42.16.68.16.18 0 .33-.02.47-.07.14-.05.26-.12.37-.22.1-.1.18-.21.23-.36l1.11.13c-.07.3-.2.55-.4.77-.2.22-.44.38-.75.5-.3.12-.65.18-1.04.18z" fill="#171A22"/><path d="M156.21 136.39v-.51l1.9-2.09c.23-.24.41-.45.56-.63.14-.19.25-.36.32-.52.07-.16.1-.33.1-.5a.94.94 0 00-.53-.88 1.3 1.3 0 00-.57-.12c-.22 0-.41.05-.58.14a.95.95 0 00-.38.38 1.2 1.2 0 00-.13.58h-.67a1.63 1.63 0 01.87-1.49c.28-.14.58-.21.91-.21.34 0 .64.07.9.21.27.14.47.34.62.58.15.24.22.5.22.8 0 .22-.04.43-.12.63-.07.2-.2.42-.39.67-.19.25-.44.55-.78.9l-1.3 1.4v.04h2.7v.62h-3.65zm4.55-1.19v-.57l2.53-4.02h.42v.9h-.28l-1.92 3.03v.04h3.42v.62h-4.17zm2.71 1.19v-5.78h.67v5.78h-.67zm4.43.08c-.24 0-.47-.05-.71-.14a1.71 1.71 0 01-.65-.44c-.2-.2-.35-.48-.47-.83a5.78 5.78 0 01-.03-2.69c.1-.4.23-.73.41-1 .19-.28.4-.48.66-.62s.55-.21.88-.21c.32 0 .61.06.86.19.26.13.46.3.62.53.16.24.27.5.31.8h-.69a1.28 1.28 0 00-.37-.65 1.03 1.03 0 00-.73-.25c-.45 0-.8.19-1.06.58-.25.39-.38.93-.38 1.64h.04a1.69 1.69 0 011.42-.77 1.82 1.82 0 011.57.93c.16.28.25.61.25.99 0 .35-.08.68-.24.98a1.83 1.83 0 01-1.7.96zm0-.63c.24 0 .45-.05.64-.17.19-.12.34-.28.44-.48.12-.2.17-.42.17-.66a1.33 1.33 0 00-.6-1.13c-.18-.11-.4-.17-.63-.17-.18 0-.34.03-.5.1a1.29 1.29 0 00-.67.71 1.34 1.34 0 00.5 1.62c.2.12.4.19.65.19zm3.26.6a.49.49 0 01-.36-.16.48.48 0 01-.15-.36c0-.13.05-.25.15-.35.1-.1.22-.15.36-.15.14 0 .26.05.36.15.1.1.15.22.15.35a.53.53 0 01-.25.44.49.49 0 01-.26.07zm3.37.03c-.42 0-.79-.12-1.09-.35-.3-.24-.52-.57-.68-1.01a4.8 4.8 0 01-.24-1.61c0-.62.08-1.16.24-1.6.16-.44.39-.78.69-1.01.3-.24.66-.35 1.08-.35.42 0 .78.11 1.08.35.3.23.53.57.69 1.01.16.44.24.98.24 1.6a4.8 4.8 0 01-.24 1.6c-.16.45-.39.78-.69 1.02-.3.23-.66.34-1.08.34zm0-.63c.42 0 .75-.2.98-.6.23-.41.35-.99.35-1.74 0-.5-.05-.93-.16-1.28-.1-.35-.26-.62-.46-.8a1 1 0 00-.71-.28c-.42 0-.74.21-.98.62-.23.41-.35 1-.35 1.74 0 .5.05.92.16 1.27.1.35.25.62.45.8.2.18.44.28.72.28zm3.18.55v-5.78h.7v2.87h.06l2.6-2.87h.91l-2.42 2.6 2.42 3.18h-.84l-2.01-2.69-.72.81v1.88h-.7z" fill="#3E424B"/><path fill="#E9EBEF" d="M36.48 143.83h146.73v.77H36.48z"/><rect x="36.63" y="131.08" width="73.39" height="3.8" rx="1.32" fill="#80D3FF"/><path d="M159.02 153.78v5.77h-.7v-5.03h-.03l-1.41.93v-.7l1.44-.97h.7zm3.58 5.85c-.24 0-.48-.05-.71-.13a1.7 1.7 0 01-.65-.44c-.2-.2-.35-.49-.47-.84s-.18-.8-.18-1.33c0-.5.05-.96.14-1.35.1-.4.24-.73.42-1 .18-.28.4-.48.66-.63.26-.14.55-.2.88-.2.32 0 .6.06.86.19.25.13.46.3.62.53.16.23.26.5.3.8h-.68a1.28 1.28 0 00-.37-.65 1.03 1.03 0 00-.73-.26c-.45 0-.8.2-1.06.59-.26.39-.38.93-.39 1.63h.05a1.7 1.7 0 012.33-.51c.27.16.49.39.66.68.16.28.24.61.24.98 0 .36-.08.69-.24.99a1.82 1.82 0 01-1.68.95zm0-.62c.23 0 .44-.06.63-.17a1.34 1.34 0 00.61-1.14c0-.24-.05-.46-.15-.66-.1-.2-.25-.35-.44-.47-.18-.11-.4-.17-.63-.17-.18 0-.35.03-.5.1a1.29 1.29 0 00-.68.71 1.32 1.32 0 00.5 1.62c.2.12.42.18.66.18zm4.84.62c-.34 0-.63-.06-.9-.2a1.67 1.67 0 01-.63-.53c-.16-.23-.25-.5-.27-.79h.68c.03.26.14.48.35.65.22.17.47.25.77.25a1.17 1.17 0 001.07-.62c.1-.2.15-.42.15-.66 0-.25-.05-.48-.16-.67a1.22 1.22 0 00-1.11-.65 1.82 1.82 0 00-1 .3l-.66-.09.35-2.84h3v.62h-2.41l-.2 1.7h.03a1.68 1.68 0 011-.33 1.77 1.77 0 011.6.95c.16.29.24.62.24 1 0 .37-.08.7-.25.98a1.8 1.8 0 01-.67.69c-.3.16-.62.24-.98.24zm3.3-.03a.49.49 0 01-.36-.15.49.49 0 01-.15-.36c0-.14.05-.26.15-.36.1-.1.22-.14.36-.14a.5.5 0 01.36.14c.1.1.15.22.15.36 0 .1-.03.18-.07.26a.54.54 0 01-.19.18.48.48 0 01-.25.07zm3.37.03c-.43 0-.79-.11-1.09-.34-.3-.24-.52-.57-.68-1.01a4.84 4.84 0 01-.24-1.61c0-.63.08-1.16.24-1.6.16-.44.39-.78.69-1.01.3-.24.66-.36 1.08-.36.42 0 .78.12 1.08.36.3.23.53.57.69 1.01.16.44.24.97.24 1.6a4.8 4.8 0 01-.24 1.6c-.16.45-.39.78-.69 1.02-.3.23-.66.34-1.08.34zm0-.62c.42 0 .75-.2.98-.6.23-.41.35-.99.35-1.74 0-.5-.05-.93-.16-1.28-.1-.35-.26-.62-.46-.8a1 1 0 00-.71-.28c-.42 0-.74.2-.98.62-.23.4-.35.99-.35 1.74 0 .5.05.92.16 1.27.1.35.25.62.45.8.2.18.44.27.72.27zm3.18.54v-5.77h.7v2.87h.06l2.6-2.87h.91l-2.42 2.6 2.42 3.17h-.84l-2.01-2.68-.72.81v1.87h-.7z" fill="#3E424B"/><path fill="#E9EBEF" d="M36.48 167h146.73v.77H36.48z"/><rect x="36.63" y="154.25" width="73.39" height="3.8" rx="1.32" fill="#80D3FF"/><path d="M159.9 176.95v5.77h-.69v-5.04h-.03l-1.41.94v-.71l1.44-.96h.7zm3.7 0v5.77h-.7v-5.04h-.03l-1.41.94v-.71l1.44-.96h.7zm3.54 5.85c-.42 0-.79-.11-1.08-.34-.3-.24-.53-.58-.69-1.02a4.83 4.83 0 01-.24-1.6c0-.63.08-1.16.24-1.6.16-.44.39-.78.69-1.02.3-.23.66-.35 1.08-.35.42 0 .78.12 1.08.35.3.24.53.58.69 1.02.16.44.24.97.24 1.6a4.8 4.8 0 01-.24 1.6c-.16.44-.39.78-.69 1.02-.3.23-.66.34-1.08.34zm0-.62c.42 0 .75-.2.98-.6.23-.41.35-1 .35-1.74 0-.5-.05-.93-.16-1.28-.1-.35-.26-.62-.46-.8a1 1 0 00-.71-.28c-.42 0-.74.2-.98.62-.23.4-.35.99-.35 1.74 0 .5.05.92.16 1.27.1.35.25.62.45.8.2.18.44.27.72.27zm3.37.59a.49.49 0 01-.36-.15.48.48 0 01-.15-.36c0-.14.05-.26.15-.36.1-.1.22-.15.36-.15.14 0 .26.05.36.15.1.1.15.22.15.36 0 .1-.02.18-.07.25a.53.53 0 01-.19.19.48.48 0 01-.25.07zm3.37.03c-.42 0-.78-.11-1.08-.34-.3-.24-.53-.58-.69-1.02a4.83 4.83 0 01-.23-1.6c0-.63.08-1.16.23-1.6.16-.44.4-.78.69-1.02.3-.23.66-.35 1.08-.35.42 0 .78.12 1.08.35.3.24.53.58.69 1.02.16.44.24.97.24 1.6a4.8 4.8 0 01-.24 1.6c-.16.44-.38.78-.68 1.02-.3.23-.66.34-1.09.34zm0-.62c.42 0 .75-.2.98-.6.24-.41.35-1 .35-1.74 0-.5-.05-.93-.16-1.28-.1-.35-.26-.62-.46-.8a1 1 0 00-.7-.28c-.42 0-.75.2-.99.62-.23.4-.35.99-.35 1.74 0 .5.05.92.16 1.27.1.35.26.62.45.8.2.18.44.27.72.27zm3.18.54v-5.77h.7v2.86h.07l2.59-2.86h.91l-2.42 2.6 2.42 3.17h-.84l-2-2.68-.73.81v1.87h-.7z" fill="#3E424B"/><path fill="#E9EBEF" d="M36.48 190.17h146.73v.77H36.48z"/><rect x="36.63" y="177.42" width="73.39" height="3.8" rx="1.32" fill="#80D3FF"/><path fill="#898D9A" d="M36.48 120.66h146.73v.77H36.48z"/><path d="M206.28 109.58v-6.74h1.22v3.1h.08l2.63-3.1h1.5l-2.61 3.03 2.63 3.71h-1.47l-2.01-2.89-.75.89v2h-1.22zm8.09.1c-.51 0-.95-.1-1.32-.31a2.13 2.13 0 01-.84-.9c-.2-.4-.3-.86-.3-1.38 0-.52.1-.98.3-1.37a2.24 2.24 0 012.1-1.26c.3 0 .6.05.87.15a2 2 0 01.74.47c.22.2.39.47.5.8.13.31.2.7.2 1.14v.36h-4.15v-.8h3c0-.23-.05-.43-.15-.61a1.09 1.09 0 00-1-.58 1.22 1.22 0 00-1.07.64c-.1.19-.16.4-.16.62v.7c0 .3.06.55.16.76.11.2.26.37.45.48.2.1.42.16.68.16.18 0 .33-.02.47-.07.14-.05.26-.12.37-.22.1-.1.18-.21.23-.36l1.11.13c-.07.3-.2.55-.4.77-.2.22-.44.38-.75.5-.3.12-.65.18-1.04.18zm3.85 1.8a2.45 2.45 0 01-.78-.13l.28-.92c.17.05.32.07.46.07s.26-.05.36-.13a.9.9 0 00.27-.4l.1-.28-1.84-5.16h1.27l1.16 3.82h.06l1.16-3.82H222l-2.02 5.67c-.1.26-.22.5-.38.68-.15.2-.34.34-.57.44-.23.1-.5.16-.8.16zm5.64-1.9l-1.43-5.05h1.22l.88 3.55h.05l.9-3.55h1.2l.92 3.53h.05l.87-3.53h1.22l-1.43 5.05h-1.24l-.95-3.41h-.07l-.95 3.41h-1.24zm8.77.1a2.22 2.22 0 01-2.13-1.24 3 3 0 01-.3-1.36c0-.53.1-.98.3-1.38.2-.39.49-.7.85-.91.36-.22.79-.33 1.28-.33.5 0 .92.11 1.28.33.37.22.65.52.84.91.2.4.3.85.3 1.38 0 .52-.1.97-.3 1.36-.2.4-.47.7-.84.92-.36.21-.78.32-1.28.32zm0-.95c.28 0 .5-.08.68-.22.18-.15.31-.35.4-.6.1-.25.14-.53.14-.84 0-.3-.05-.59-.14-.84a1.33 1.33 0 00-.4-.6c-.18-.15-.4-.22-.67-.22-.28 0-.5.07-.69.22-.18.15-.31.35-.4.6-.09.25-.13.53-.13.84 0 .31.04.59.13.84s.22.45.4.6c.19.14.41.22.69.22zm3.44.85v-5.05h1.15v.84h.05a1.27 1.27 0 011.25-.91 2.57 2.57 0 01.43.03v1.1a2.25 2.25 0 00-.55-.07c-.22 0-.42.04-.6.14a1.05 1.05 0 00-.54.95v2.97h-1.2zm5.34.1a1.92 1.92 0 01-1.81-1.2 3.32 3.32 0 01-.28-1.42c0-.56.1-1.03.28-1.42a1.94 1.94 0 012.54-1.03c.2.1.34.22.46.36.1.14.2.27.25.4h.05v-2.53h1.2v6.74h-1.17v-.8h-.08a2.1 2.1 0 01-.26.4 1.47 1.47 0 01-1.18.5zm.33-.99c.25 0 .47-.06.64-.2.18-.14.32-.33.4-.57.1-.25.15-.54.15-.86 0-.33-.05-.62-.14-.86a1.21 1.21 0 00-.4-.56c-.18-.13-.4-.2-.65-.2-.27 0-.49.07-.67.2-.17.15-.3.34-.4.58a2.4 2.4 0 00-.13.84c0 .31.04.6.13.84.1.25.23.44.4.58.19.14.4.21.67.21zm7.62-2.83l-1.08.12a.85.85 0 00-.47-.54 1.1 1.1 0 00-.46-.09c-.25 0-.46.06-.63.16-.17.11-.25.25-.25.42 0 .15.06.27.16.36.12.1.3.17.56.23l.86.18c.48.1.83.27 1.07.5.23.22.35.5.35.87 0 .32-.1.6-.28.84a1.8 1.8 0 01-.76.57c-.32.13-.7.2-1.12.2a2.6 2.6 0 01-1.5-.39c-.37-.26-.6-.62-.67-1.09l1.17-.1c.05.22.16.4.33.5.17.13.4.18.67.18.28 0 .51-.05.68-.17.17-.12.26-.26.26-.43a.45.45 0 00-.17-.36c-.1-.1-.28-.17-.51-.22l-.86-.18c-.49-.1-.85-.27-1.08-.5a1.26 1.26 0 01-.34-.92c0-.31.08-.58.25-.81.17-.23.41-.41.72-.54.3-.12.67-.19 1.07-.19.6 0 1.06.13 1.4.38.34.25.55.6.63 1.02z" fill="#171A22"/><path fill="#E9EBEF" d="M205.61 143.83h145.96v.77H205.61z"/><rect x="205.76" y="131.08" width="73.39" height="3.8" rx="1.32" fill="#80D3FF"/><path fill="#E9EBEF" d="M205.61 167h145.96v.77H205.61z"/><rect x="205.76" y="154.25" width="73.39" height="3.8" rx="1.32" fill="#80D3FF"/><path fill="#E9EBEF" d="M205.61 190.17h145.96v.77H205.61z"/><rect x="205.76" y="177.42" width="73.39" height="3.8" rx="1.32" fill="#80D3FF"/><path fill="#898D9A" d="M205.61 120.66h145.96v.77H205.61z"/><path d="M37.38 46.84l-.01-10.1 2.14-.01v4.46h.14l3.63-4.47h2.56l-3.75 4.53 3.8 5.58h-2.55l-2.77-4.15-1.05 1.29v2.87h-2.14zm12.45.13c-.78 0-1.45-.15-2.02-.47-.56-.32-.99-.77-1.3-1.35a4.47 4.47 0 01-.45-2.08c0-.78.15-1.46.45-2.05.3-.59.73-1.05 1.28-1.38.55-.33 1.2-.5 1.94-.5.5 0 .97.08 1.4.24a3.1 3.1 0 011.9 1.92c.18.48.27 1.04.27 1.69v.58h-6.4v-1.3h4.42c0-.3-.07-.57-.2-.8a1.41 1.41 0 00-.55-.56c-.23-.13-.5-.2-.8-.2-.32 0-.6.08-.85.23a1.66 1.66 0 00-.78 1.4v1.24c0 .37.07.7.2.97.15.27.35.48.6.63.26.15.57.22.92.22.23 0 .45-.03.64-.1a1.29 1.29 0 00.81-.78l1.95.13c-.1.47-.3.87-.6 1.22s-.7.62-1.18.81c-.48.2-1.03.3-1.65.3zm5.95 2.69a4.16 4.16 0 01-1.32-.22l.47-1.57c.24.08.47.12.66.13.2 0 .38-.04.52-.14.15-.1.27-.27.36-.5l.12-.33-2.73-7.8h2.21l1.58 5.57h.08l1.58-5.57h2.22l-2.93 8.4c-.14.4-.33.77-.58 1.07-.24.3-.54.54-.9.7a3.2 3.2 0 01-1.34.26zm8.34-2.86l-2.08-7.58h2.13l1.18 5.1h.07l1.22-5.1h2.09l1.25 5.06h.06l1.15-5.07h2.12l-2.04 7.58h-2.23l-1.31-4.76h-.1l-1.3 4.77h-2.21zm13.56.13c-.77 0-1.43-.16-1.99-.48a3.34 3.34 0 01-1.29-1.37 4.42 4.42 0 01-.46-2.05c0-.79.15-1.47.45-2.06a3.3 3.3 0 011.3-1.37c.55-.33 1.21-.5 1.98-.5s1.43.16 1.98.5c.56.32 1 .77 1.3 1.36.3.59.46 1.27.46 2.06 0 .77-.15 1.46-.45 2.05-.3.58-.74 1.04-1.3 1.37-.55.33-1.21.49-1.98.5zm0-1.63c.36 0 .65-.1.88-.3.24-.2.41-.47.53-.82.12-.34.18-.73.18-1.18 0-.44-.06-.83-.18-1.17-.12-.35-.3-.62-.53-.82a1.3 1.3 0 00-.88-.3c-.35 0-.65.1-.89.3-.23.2-.41.47-.53.82-.12.34-.18.74-.18 1.18 0 .44.06.83.18 1.18.12.34.3.62.54.82.24.2.54.3.89.3zm5.1 1.48l-.01-7.59h2.04v1.32h.08c.14-.47.37-.82.7-1.06.32-.25.7-.37 1.12-.37a3.2 3.2 0 01.66.07v1.87a3.68 3.68 0 00-.89-.11c-.3 0-.58.06-.83.2a1.5 1.5 0 00-.77 1.37v4.3h-2.1zm8.13.1c-.58 0-1.1-.14-1.57-.43-.46-.3-.83-.74-1.1-1.32-.27-.58-.41-1.3-.41-2.14 0-.87.14-1.6.42-2.17.27-.58.65-1.01 1.1-1.3a2.86 2.86 0 012.6-.22c.3.14.52.32.7.53.17.21.31.42.4.62h.07v-3.8h2.09l.01 10.1-2.07.01v-1.21h-.09c-.1.2-.24.42-.42.62s-.4.38-.7.51c-.28.14-.62.2-1.03.2zm.66-1.67c.34 0 .63-.09.86-.28.24-.18.42-.44.54-.78.13-.34.2-.73.2-1.18 0-.45-.07-.84-.2-1.18-.12-.33-.3-.58-.54-.76a1.38 1.38 0 00-.86-.27c-.35 0-.64.09-.88.28-.23.19-.41.45-.53.78-.12.33-.18.72-.18 1.15 0 .44.06.83.18 1.17.13.34.3.6.54.8.24.18.53.27.87.27zm10.45-8.57l2.46 7.67h.09l2.44-7.68h2.37l-3.47 10.11h-2.76l-3.5-10.1h2.37zm9.87 10.24c-.48 0-.92-.09-1.3-.25a2.08 2.08 0 01-.9-.76 2.26 2.26 0 01-.32-1.25c0-.42.07-.78.23-1.06.15-.29.36-.52.63-.7.27-.17.57-.3.9-.4.35-.08.7-.14 1.08-.18l1.07-.13c.27-.04.47-.1.59-.19.12-.08.18-.2.18-.36v-.03c0-.32-.1-.56-.3-.73-.2-.17-.47-.26-.83-.26-.38 0-.68.09-.9.26-.22.16-.37.37-.44.62l-1.95-.15a2.64 2.64 0 011.7-1.98 4.85 4.85 0 012.8-.13c.4.1.74.25 1.04.45a2.22 2.22 0 01.98 1.96v5.12h-1.98v-1.05h-.07a2.14 2.14 0 01-1.22 1.05c-.28.1-.61.15-.99.15zm.6-1.46c.3 0 .58-.06.82-.18.24-.13.42-.3.56-.5.13-.22.2-.45.2-.72v-.8a5.05 5.05 0 01-1.08.29l-.38.05c-.25.03-.47.1-.65.17-.18.08-.33.19-.43.32-.1.13-.15.3-.15.5 0 .28.1.5.31.65.21.15.48.22.8.22zm5.3 1.3l-.01-7.58h2.04v1.32h.08c.14-.47.37-.83.7-1.07.32-.24.7-.36 1.12-.36a3.15 3.15 0 01.66.07v1.87a3.69 3.69 0 00-.89-.11c-.3 0-.58.06-.83.2a1.49 1.49 0 00-.77 1.37v4.3h-2.1zm5.69 0l-.01-7.59h2.1l.01 7.58h-2.1zm1.04-8.57c-.31 0-.58-.1-.8-.3a1 1 0 01-.33-.76c0-.29.1-.54.33-.75.22-.2.49-.31.8-.31.31 0 .58.1.8.31.22.2.34.46.34.75a1 1 0 01-.34.75c-.22.2-.48.31-.8.31zm4.9 8.7c-.47 0-.9-.08-1.28-.25a2.08 2.08 0 01-.9-.75 2.26 2.26 0 01-.33-1.26c0-.42.07-.77.23-1.06.15-.29.36-.52.63-.7.27-.17.57-.3.9-.39.35-.09.7-.15 1.08-.19.44-.04.8-.09 1.07-.13.27-.04.46-.1.59-.19.12-.08.18-.2.18-.36v-.03a.9.9 0 00-.3-.73c-.2-.17-.47-.25-.83-.25-.38 0-.68.08-.9.25-.23.17-.37.37-.44.62l-1.95-.15a2.65 2.65 0 011.7-1.98 4.85 4.85 0 012.8-.13c.4.1.74.25 1.04.46a2.23 2.23 0 01.98 1.96v5.11h-1.99v-1.05h-.06a2.14 2.14 0 01-1.22 1.05c-.28.1-.62.15-1 .15zm.6-1.45c.32 0 .6-.06.83-.19.24-.12.42-.29.56-.5.13-.21.2-.45.2-.72v-.8c-.07.04-.16.08-.28.12a5.05 5.05 0 01-.8.17l-.38.05c-.25.04-.47.1-.65.17-.19.08-.33.2-.43.33-.1.13-.15.3-.15.49 0 .29.1.5.3.66.22.14.49.22.8.22zm9.33-6.3v1.59h-4.56v-1.57l4.56-.01zm-3.53-1.8h2.1l.01 7.06c0 .2.03.35.1.46.05.1.13.18.24.22.1.04.23.06.38.06a1.8 1.8 0 00.52-.07l.33 1.57a5.9 5.9 0 01-1.14.2 3.2 3.2 0 01-1.33-.2c-.38-.16-.68-.4-.89-.72a2.2 2.2 0 01-.3-1.24l-.02-7.34zm4.91 9.39V39.1h2.1v7.58h-2.1zm1.05-8.56c-.32 0-.58-.1-.8-.31a1 1 0 01-.34-.76c0-.29.1-.53.33-.74.22-.21.5-.32.8-.32.32 0 .58.1.8.32.23.2.34.45.34.74a1 1 0 01-.33.76c-.22.2-.5.3-.8.3zm6.17 8.7c-.77 0-1.43-.16-2-.49a3.35 3.35 0 01-1.28-1.37 4.41 4.41 0 01-.46-2.05c0-.78.15-1.47.45-2.05a3.3 3.3 0 011.29-1.38c.56-.33 1.22-.5 1.99-.5.76 0 1.42.17 1.98.5.56.32 1 .78 1.3 1.37.3.58.45 1.27.45 2.05 0 .78-.15 1.46-.45 2.05-.3.59-.73 1.05-1.29 1.38-.56.32-1.22.49-1.98.49zm0-1.63c.35 0 .64-.1.88-.3.23-.2.4-.47.52-.82.13-.35.19-.74.19-1.18 0-.44-.07-.83-.19-1.18-.12-.34-.3-.62-.53-.82a1.3 1.3 0 00-.87-.3c-.35 0-.65.1-.9.3-.23.2-.4.48-.53.82-.12.35-.17.74-.17 1.18 0 .45.06.84.18 1.18.12.35.3.62.53.82.25.2.54.3.9.3zm7.2-2.92v4.39h-2.1l-.02-7.58h2l.01 1.33h.09c.17-.44.45-.79.84-1.04.4-.27.88-.4 1.44-.4.52 0 .98.12 1.38.35.39.23.7.56.91.98.22.43.33.93.33 1.52v4.83h-2.1v-4.45c0-.46-.12-.82-.36-1.08-.24-.27-.57-.4-1-.4-.28 0-.53.06-.74.19-.22.12-.39.3-.5.53-.13.23-.19.5-.19.83zm12.84-1.05l-1.92.12a1 1 0 00-.21-.44c-.11-.14-.26-.25-.43-.32a1.46 1.46 0 00-.63-.13c-.33 0-.6.07-.83.21-.22.14-.33.32-.33.55 0 .18.07.33.22.45.14.13.4.23.74.3l1.38.28c.73.15 1.28.4 1.65.73.36.33.54.77.54 1.32 0 .5-.14.93-.44 1.3-.28.38-.68.68-1.19.89-.5.2-1.08.31-1.74.31-1 0-1.8-.2-2.4-.62-.6-.42-.94-1-1.05-1.72l2.07-.11c.07.3.22.54.46.7.24.16.55.24.92.24s.67-.08.89-.22c.23-.14.34-.33.34-.56 0-.19-.08-.34-.24-.46-.16-.13-.4-.22-.73-.29l-1.31-.26c-.74-.15-1.3-.4-1.66-.77a1.91 1.91 0 01-.54-1.4c0-.48.13-.9.4-1.25.26-.35.63-.63 1.11-.82.49-.19 1.05-.29 1.7-.29.96 0 1.71.2 2.26.6.56.41.88.96.97 1.66z" fill="#171A22"/><path d="M177.58 35.71c-.3 0-.58.1-.78.3a.97.97 0 00-.33.72c0 .26.12.52.33.71.2.2.48.3.78.3.29 0 .57-.1.78-.3.2-.19.32-.45.32-.71a.97.97 0 00-.32-.72c-.21-.2-.5-.3-.78-.3zm-.27 3.22c-.87.07-3.27 1.82-3.27 1.82-.14.1-.1.1.02.29.12.18.1.2.24.1l.8-.46c1.56-.91.25 1.2-.42 4.78-.27 1.77 1.47.86 1.92.59l1.74-1.09c.16-.1.05-.18-.08-.35-.09-.12-.18-.03-.18-.03-.47.29-1.35.9-1.47.5-.14-.38.76-3.02 1.25-4.84.08-.43.3-1.37-.55-1.3z" fill="#D1D4DB"/><path d="M210.32 43.32h1.82l.92 1.17.9 1.05 1.7 2.12h-2l-1.17-1.43-.6-.85-1.57-2.06zm5.48-1.55c0 1.1-.2 2.05-.63 2.82a4.35 4.35 0 01-1.7 1.77c-.7.41-1.5.61-2.4.61-.9 0-1.7-.2-2.42-.6-.71-.41-1.28-1-1.7-1.77a5.86 5.86 0 01-.62-2.81c0-1.1.2-2.04.62-2.82.41-.77.97-1.36 1.69-1.77.71-.4 1.52-.61 2.42-.61.89 0 1.69.2 2.4.6.72.41 1.29 1 1.7 1.77.43.77.63 1.71.64 2.81zm-2.17 0c0-.7-.1-1.3-.32-1.8a2.45 2.45 0 00-.9-1.11 2.4 2.4 0 00-1.35-.38c-.52 0-.97.13-1.35.38-.39.26-.69.63-.9 1.12-.21.49-.31 1.1-.31 1.8 0 .72.1 1.32.31 1.81.22.5.52.86.9 1.12.39.25.84.38 1.36.37.51 0 .97-.12 1.35-.38.38-.25.68-.62.9-1.11.2-.5.31-1.1.31-1.81zm8.58 1.82l-.01-4.35h2.1l.01 7.58h-2.02v-1.38h-.08c-.17.45-.45.8-.85 1.08-.4.27-.88.4-1.45.4a2.37 2.37 0 01-2.24-1.32 3.39 3.39 0 01-.33-1.53v-4.83h2.1v4.45c.01.45.13.8.37 1.07.24.25.55.38.95.38a1.35 1.35 0 001.24-.7c.14-.22.2-.5.2-.85zm7.24 3.37c-.78 0-1.45-.16-2.01-.47-.56-.32-1-.77-1.3-1.35a4.46 4.46 0 01-.46-2.08c0-.78.15-1.47.45-2.06.3-.59.73-1.05 1.28-1.38.55-.33 1.2-.5 1.95-.5.5 0 .96.09 1.4.25a3.1 3.1 0 011.9 1.92c.17.48.26 1.04.27 1.68v.58l-6.4.01v-1.3h4.41c0-.31-.06-.58-.2-.81a1.41 1.41 0 00-.54-.55c-.23-.14-.5-.2-.8-.2a1.62 1.62 0 00-1.43.81c-.14.24-.2.52-.2.81v1.24c0 .38.06.7.2.98.14.27.34.48.6.63.26.14.56.22.91.22a2 2 0 00.65-.1 1.29 1.29 0 00.81-.78l1.94.12c-.1.47-.3.88-.6 1.23-.3.34-.7.61-1.18.8-.47.2-1.02.3-1.65.3zm11.15-5.59l-1.92.12a1 1 0 00-.21-.44c-.11-.13-.26-.24-.43-.32a1.45 1.45 0 00-.63-.12c-.33 0-.6.07-.82.2-.23.14-.34.32-.34.55 0 .18.07.33.22.46.14.12.4.22.74.3l1.38.27c.73.15 1.28.4 1.65.73.36.34.54.78.54 1.32 0 .5-.14.94-.44 1.31-.28.38-.68.67-1.19.88-.5.21-1.08.31-1.74.32-1 0-1.8-.21-2.4-.63-.6-.42-.94-.99-1.05-1.71l2.07-.12c.07.31.22.54.46.7.24.16.55.24.92.24s.67-.07.89-.21c.23-.15.34-.33.34-.56 0-.2-.08-.35-.24-.47-.16-.13-.4-.22-.73-.29l-1.31-.26c-.74-.14-1.3-.4-1.66-.76a1.91 1.91 0 01-.54-1.4c0-.49.13-.9.4-1.26.26-.35.63-.62 1.12-.81a4.6 4.6 0 011.7-.3c.95 0 1.7.2 2.25.61.56.4.88.95.97 1.65zm5.53-2.17v1.58h-4.56v-1.57h4.56zm-3.53-1.8l2.1-.01.01 7.07c0 .2.03.34.1.45.05.1.13.18.24.22.1.04.23.07.37.07a1.78 1.78 0 00.53-.07l.33 1.56a5.9 5.9 0 01-1.14.2 3.2 3.2 0 01-1.33-.2c-.38-.16-.68-.4-.89-.72a2.2 2.2 0 01-.31-1.23l-.01-7.35zm4.91 9.38V39.2h2.1v7.58h-2.1zm1.05-8.56c-.32 0-.59-.1-.8-.3a1 1 0 01-.34-.76c0-.3.1-.54.33-.75.22-.21.49-.32.8-.32.31 0 .58.1.8.32.23.2.34.45.34.74a1 1 0 01-.34.76c-.22.2-.48.31-.8.31zm6.17 8.7c-.77 0-1.43-.16-2-.49a3.34 3.34 0 01-1.28-1.37 4.41 4.41 0 01-.46-2.04c0-.79.15-1.47.45-2.06a3.3 3.3 0 011.28-1.37c.56-.33 1.23-.5 2-.5.76 0 1.42.16 1.98.5.56.32 1 .77 1.3 1.36.3.59.45 1.27.45 2.05 0 .78-.15 1.46-.45 2.05-.3.59-.73 1.05-1.3 1.38-.55.32-1.2.49-1.97.49zm0-1.63c.35 0 .64-.1.88-.3.23-.2.4-.47.52-.82.13-.34.19-.74.18-1.18 0-.44-.06-.83-.18-1.18-.12-.34-.3-.62-.53-.82a1.3 1.3 0 00-.87-.3c-.36 0-.65.1-.9.3-.23.2-.4.48-.53.83-.12.34-.18.74-.18 1.18 0 .44.07.83.19 1.18.12.34.3.62.53.82.25.2.54.3.9.3zm7.2-2.91v4.38h-2.1l-.02-7.58h2l.01 1.34h.09c.17-.45.45-.8.84-1.05.4-.26.87-.4 1.44-.4.52 0 .98.12 1.38.35.39.23.7.56.91.99.22.42.33.93.33 1.52v4.82h-2.1V42.3c0-.46-.12-.82-.36-1.08-.24-.26-.57-.4-1-.4-.28 0-.53.07-.75.19-.2.12-.38.3-.5.53-.12.23-.18.51-.18.84zm12.84-1.06l-1.92.12a1 1 0 00-.22-.44c-.1-.14-.25-.24-.43-.32a1.46 1.46 0 00-.62-.12c-.33 0-.6.07-.83.2-.22.14-.33.32-.33.55 0 .18.07.33.22.46.14.12.39.22.74.3l1.38.27c.73.15 1.28.4 1.64.73.37.33.55.78.55 1.32 0 .5-.14.93-.44 1.31-.29.38-.68.67-1.19.88-.5.2-1.08.31-1.74.31-1 0-1.8-.2-2.4-.62-.6-.42-.94-1-1.05-1.72l2.07-.1c.06.3.22.53.46.7.24.15.54.23.92.23.37 0 .67-.07.89-.21.22-.15.34-.34.34-.56 0-.2-.08-.35-.24-.47-.16-.13-.4-.22-.73-.29l-1.31-.26c-.74-.14-1.3-.4-1.66-.76a1.91 1.91 0 01-.54-1.4c0-.49.13-.9.4-1.26.26-.35.63-.62 1.11-.82.49-.19 1.05-.28 1.7-.28.96 0 1.71.2 2.26.6.56.4.88.95.97 1.65z" fill="#171A22"/><path d="M290.33 35.71c-.3 0-.57.11-.78.3a.97.97 0 00-.32.72c0 .27.11.52.32.71.2.2.49.3.78.3.3 0 .57-.1.78-.3.2-.19.32-.44.32-.71a.97.97 0 00-.32-.72c-.2-.19-.49-.3-.78-.3zm-.26 3.23c-.88.06-3.27 1.81-3.27 1.81-.15.1-.1.1.01.29.12.18.1.2.24.1l.8-.45c1.56-.92.25 1.2-.42 4.77-.26 1.77 1.47.86 1.92.59.44-.26 1.63-1.01 1.75-1.09.16-.1.04-.18-.09-.35-.08-.11-.17-.03-.17-.03-.48.29-1.36.9-1.47.51-.14-.38.75-3.03 1.25-4.84.08-.44.3-1.38-.56-1.31z" fill="#D1D4DB"/><path d="M38.31 76.02l6.34-12.56v-.1h-7.41V60.3h11.35v3.08l-6.37 12.64h-3.9zM57.94 60.3v15.72h-3.79V63.84h-.1L50.56 66v-3.28l3.87-2.41h3.52zm9.79 15.94c-.86 0-1.69-.14-2.48-.42a5.67 5.67 0 01-2.1-1.33 6.36 6.36 0 01-1.45-2.41c-.36-1-.53-2.22-.52-3.65 0-1.3.16-2.46.47-3.49A7.74 7.74 0 0163 62.31a5.86 5.86 0 014.81-2.23c1.1 0 2.07.22 2.91.65.85.42 1.52 1 2.03 1.72.5.71.8 1.51.9 2.4H69.9c-.11-.5-.36-.88-.75-1.14-.37-.26-.83-.39-1.35-.39-.96 0-1.68.42-2.16 1.25a6.91 6.91 0 00-.72 3.35h.1c.22-.47.53-.87.93-1.21a5.04 5.04 0 013.06-1.05 4.6 4.6 0 014.2 2.44c.4.75.61 1.61.6 2.59.01 1.1-.25 2.06-.76 2.9a5.3 5.3 0 01-2.15 1.95c-.91.46-1.97.7-3.17.7zm-.03-2.92a2.4 2.4 0 002.43-2.51c0-.48-.1-.91-.3-1.28a2.32 2.32 0 00-2.12-1.22 2.4 2.4 0 00-2.24 1.52 2.69 2.69 0 00.13 2.25 2.35 2.35 0 002.1 1.24zm9.8 2.93c-.55 0-1.03-.2-1.42-.59a1.9 1.9 0 01-.58-1.41c0-.54.2-1 .58-1.4.4-.38.87-.57 1.42-.57.52 0 .98.19 1.38.58a1.87 1.87 0 01.33 2.4c-.19.3-.43.54-.73.72-.3.18-.63.27-.98.27zm10.08-.01c-.86 0-1.69-.14-2.48-.42A5.67 5.67 0 0183 74.5a6.36 6.36 0 01-1.45-2.41c-.36-1-.53-2.22-.52-3.65 0-1.3.16-2.46.47-3.49a7.74 7.74 0 011.34-2.63 5.86 5.86 0 014.81-2.23c1.1 0 2.07.22 2.91.65.85.42 1.52 1 2.03 1.72.5.71.8 1.51.9 2.4h-3.74c-.11-.5-.36-.88-.75-1.14-.37-.26-.83-.39-1.35-.39-.96 0-1.68.42-2.16 1.25a6.91 6.91 0 00-.72 3.35h.1c.22-.47.53-.87.93-1.21a5.04 5.04 0 013.06-1.05 4.6 4.6 0 014.2 2.44c.4.75.61 1.61.6 2.59.01 1.1-.25 2.06-.76 2.9a5.29 5.29 0 01-2.15 1.95c-.91.46-1.97.7-3.17.7zm-.03-2.92a2.4 2.4 0 002.43-2.51c0-.48-.1-.91-.3-1.28a2.32 2.32 0 00-2.12-1.22 2.4 2.4 0 00-2.24 1.52 2.69 2.69 0 00.13 2.25 2.35 2.35 0 002.1 1.24zm8.3 2.7V60.3h3.8v6.65h.21l5.2-6.65h4.47l-5.57 7.01 5.68 8.71h-4.55l-3.92-6.18-1.52 1.92v4.26h-3.8zM212.8 76.24c-1.15 0-2.17-.21-3.06-.62-.9-.42-1.6-.99-2.11-1.72a4.4 4.4 0 01-.8-2.5h3.68c.03.58.27 1.04.71 1.4.44.35.97.52 1.57.52.48 0 .9-.1 1.27-.32.37-.2.66-.5.87-.88.2-.38.31-.82.3-1.32.01-.5-.1-.95-.3-1.33-.22-.38-.51-.67-.88-.88-.37-.22-.8-.32-1.28-.32-.46 0-.89.1-1.3.3-.4.2-.7.48-.92.83l-3.35-.63.68-8.47h10.09v3.06H211l-.36 3.7h.1c.26-.43.68-.78 1.25-1.07a4.46 4.46 0 012-.43 4.82 4.82 0 014.9 5.13 5.3 5.3 0 01-2.9 4.84c-.9.47-1.97.7-3.2.7zm14.17 0a7.8 7.8 0 01-3.19-.62 5.36 5.36 0 01-2.18-1.7 4.21 4.21 0 01-.81-2.52h3.82c.01.34.13.65.33.91s.48.47.84.62c.35.15.75.22 1.2.22.45 0 .85-.08 1.2-.24a2 2 0 00.8-.67c.2-.28.3-.61.3-.98s-.1-.7-.32-.98c-.22-.29-.52-.51-.92-.67a3.65 3.65 0 00-1.38-.24h-1.53v-2.7h1.53c.47 0 .88-.08 1.23-.23.36-.15.64-.37.84-.65.2-.28.3-.6.29-.96a1.68 1.68 0 00-.97-1.56 2.85 2.85 0 00-2.2 0c-.33.15-.6.36-.8.63-.2.27-.3.58-.32.94h-3.63a4.2 4.2 0 01.78-2.47 5.14 5.14 0 012.1-1.68c.88-.4 1.89-.6 3.02-.6 1.12 0 2.12.19 2.97.58.85.4 1.52.93 2 1.62.47.67.71 1.44.71 2.3 0 .88-.28 1.6-.87 2.18-.58.57-1.32.93-2.23 1.06v.12a4.4 4.4 0 012.75 1.18c.63.65.94 1.46.93 2.42a3.9 3.9 0 01-.8 2.43 5.34 5.34 0 01-2.23 1.66c-.95.4-2.03.6-3.26.6zm10.14 0c-.56 0-1.03-.19-1.42-.58a1.9 1.9 0 01-.58-1.41c0-.54.19-1 .58-1.4.4-.38.86-.57 1.42-.57.52 0 .98.19 1.38.58a1.87 1.87 0 01.32 2.4c-.18.3-.43.54-.73.72-.3.18-.62.27-.97.27zm4.25-2.83v-2.96l6.44-10.15h2.64v4.02h-1.53l-3.77 5.97v.13h9.33v3h-13.1zm7.6 2.61v-3.51l.07-1.3V60.3h3.56v15.72h-3.63zm7.53 0V60.3h3.8v6.65h.21l5.2-6.65h4.48l-5.58 7.01 5.68 8.71h-4.55l-3.92-6.18-1.52 1.92v4.26h-3.8z" fill="#00A8FF"/><defs><filter id="filter0_d_122_75104" x=".19" y=".19" width="394.63" height="236.32" filterUnits="userSpaceOnUse" color-interpolation-filters="sRGB"><feFlood flood-opacity="0" result="BackgroundImageFix"/><feColorMatrix in="SourceAlpha" values="0 0 0 0 0 0 0 0 0 0 0 0 0 0 0 0 0 0 127 0" result="hardAlpha"/><feOffset dx="3.09" dy="3.09"/><feGaussianBlur stdDeviation="6.95"/><feColorMatrix values="0 0 0 0 0.537255 0 0 0 0 0.552941 0 0 0 0 0.603922 0 0 0 0.3 0"/><feBlend in2="BackgroundImageFix" result="effect1_dropShadow_122_75104"/><feBlend in="SourceGraphic" in2="effect1_dropShadow_122_75104" result="shape"/></filter></defs></svg>