<svg width="259" height="131" viewBox="0 0 259 131" fill="none" xmlns="http://www.w3.org/2000/svg"><path d="M14.14 9h.91l5.46 10.45 3.64-18.22h4.31L23.68 25H19.1l-4.53-8.72L10.14 25h-4.6L.77 1.23h4.37l3.68 18.16 5.33-10.4zm17.4 16V1.23h4.02v9.32a6.37 6.37 0 014.5-1.78c3.36 0 6.24 2.28 6.24 6.66V25h-4v-8.94c0-2.37-1.36-3.58-3.23-3.58-1.68 0-3.51.92-3.51 3.58V25h-4.03zm28.66 0l-.25-2.22a6.29 6.29 0 01-5.23 2.54c-2.85 0-5.14-1.65-5.14-4.7 0-3.26 2.8-4.53 6.15-5.29l4.06-.92c-.35-1.61-1.46-2.28-3.08-2.28-1.83 0-3 .8-3.42 2.44l-3.8-.7c.76-3 3.3-5.1 7.29-5.1 4.21 0 6.97 2.22 6.97 6.66V25H60.2zm-6.53-4.63c0 1.08.73 1.65 1.9 1.65 2.13 0 4.31-1.36 4.31-4.25v-.38l-3.93.99c-1.36.31-2.28.79-2.28 2zm12.23-8.9l5.92-5.96h1.08v3.61h5.52v3.49H72.9v6.75c0 1.65.83 2.28 2.25 2.28.7 0 1.37-.19 2.16-.54l.88 3.3c-1.2.6-2.56.92-3.93.92-3.35 0-5.35-1.87-5.35-5.04V12.6H65.9v-1.14zM80.5 9.09l-.19-7.86h3.87l-.2 7.86h-3.48zm13 16.23c-3.56 0-6.35-1.37-7.23-4.76l4.08-.82c.32 1.65 1.5 2.34 3.14 2.34 1.62 0 2.6-.63 2.6-1.77 0-1.2-1.71-1.36-3.61-1.71-2.57-.41-5.58-1.11-5.58-4.76 0-2.94 2.79-5.07 6.62-5.07 3.59 0 5.74 1.59 6.66 4.4l-3.96.83c-.32-1.36-1.27-2-2.7-2-1.58 0-2.53.7-2.53 1.65 0 1.18 1.46 1.43 3.26 1.72 2.67.44 5.96.98 5.96 4.69 0 3-2.22 5.26-6.72 5.26zm14.64-13.85l5.92-5.96h1.08v3.61h5.52v3.49h-5.52v6.75c0 1.65.82 2.28 2.25 2.28.7 0 1.36-.19 2.16-.54l.88 3.3c-1.2.6-2.56.92-3.93.92-3.36 0-5.35-1.87-5.35-5.04V12.6h-3.01v-1.14zM123.45 25V1.23h4.03v9.32a6.37 6.37 0 014.5-1.78c3.36 0 6.24 2.28 6.24 6.66V25h-3.99v-8.94c0-2.37-1.36-3.58-3.23-3.58-1.68 0-3.52.92-3.52 3.58V25h-4.03zm18.63-20.8c0-1.39 1.01-2.4 2.44-2.4 1.4 0 2.4 1.01 2.4 2.4a2.33 2.33 0 01-2.43 2.39c-1.4 0-2.41-1.02-2.41-2.38zm.41 20.8V9.12h4.02V25h-4.02zm14.27.32c-3.54 0-6.33-1.37-7.22-4.76l4.09-.82c.31 1.65 1.49 2.34 3.13 2.34 1.62 0 2.6-.63 2.6-1.77 0-1.2-1.7-1.36-3.6-1.71-2.58-.41-5.59-1.11-5.59-4.76 0-2.94 2.8-5.07 6.63-5.07 3.58 0 5.73 1.59 6.65 4.4l-3.96.83c-.32-1.36-1.27-2-2.7-2-1.58 0-2.53.7-2.53 1.65 0 1.18 1.46 1.43 3.27 1.72 2.66.44 5.95.98 5.95 4.69 0 3-2.21 5.26-6.72 5.26zm22.41 0c-3.55 0-6.33-1.37-7.22-4.76l4.09-.82c.31 1.65 1.49 2.34 3.13 2.34 1.62 0 2.6-.63 2.6-1.77 0-1.2-1.7-1.36-3.61-1.71-2.57-.41-5.58-1.11-5.58-4.76 0-2.94 2.8-5.07 6.63-5.07 3.58 0 5.73 1.59 6.65 4.4l-3.96.83c-.32-1.36-1.27-2-2.7-2-1.58 0-2.53.7-2.53 1.65 0 1.18 1.46 1.43 3.26 1.72 2.67.44 5.96.98 5.96 4.69 0 3-2.22 5.26-6.72 5.26zm9.84-.32V9.12h3.61l.22 1.55a5.17 5.17 0 014.03-1.9c1.87 0 3.52.8 4.5 2.35a5.87 5.87 0 014.75-2.35c3.1 0 5.64 2.13 5.64 6.18V25h-3.99v-9.73c0-1.84-1.01-2.79-2.53-2.79-1.43 0-2.86.7-2.86 2.79V25h-3.99v-9.73c0-1.84-1.01-2.79-2.54-2.79-1.39 0-2.85.7-2.85 2.79V25h-4zm36.68 0l-.25-2.22a6.29 6.29 0 01-5.23 2.54c-2.85 0-5.13-1.65-5.13-4.7 0-3.26 2.79-4.53 6.14-5.29l4.06-.92c-.35-1.61-1.46-2.28-3.07-2.28-1.84 0-3.01.8-3.43 2.44l-3.8-.7c.76-3 3.3-5.1 7.3-5.1 4.2 0 6.96 2.22 6.96 6.66V25h-3.55zm-6.53-4.63c0 1.08.73 1.65 1.9 1.65 2.13 0 4.32-1.36 4.32-4.25v-.38l-3.93.99c-1.37.31-2.28.79-2.28 2zM233.56 25V1.23h4.02V25h-4.02zm8.66 0V1.23h4.03V25h-4.03zM2.31 60V36.23h4.03v9.57a6.6 6.6 0 014.82-2.03c4.43 0 7.8 3.52 7.8 8.27 0 4.8-3.37 8.28-7.8 8.28a6.58 6.58 0 01-4.98-2.19L5.93 60H2.3zm8.24-12.55c-2.56 0-4.21 1.84-4.21 4.6 0 2.78 1.65 4.62 4.21 4.62 2.57 0 4.25-1.84 4.25-4.63 0-2.75-1.68-4.6-4.25-4.6zm15.43-3.33v9.51c0 2 1.14 3.01 3.14 3.01 1.55 0 3.23-.86 3.23-3.4v-9.12h4V60h-3.58l-.2-1.55c-1.04 1.2-2.4 1.87-4.56 1.87-3.26 0-6.02-2.13-6.02-6.31v-9.89h4zm20.63 16.2c-3.55 0-6.34-1.37-7.22-4.76l4.08-.82c.32 1.65 1.5 2.34 3.14 2.34 1.62 0 2.6-.63 2.6-1.77 0-1.2-1.71-1.36-3.61-1.71-2.57-.41-5.58-1.11-5.58-4.76 0-2.94 2.79-5.07 6.62-5.07 3.58 0 5.74 1.59 6.66 4.4l-3.96.83c-.32-1.36-1.27-2-2.7-2-1.58 0-2.53.7-2.53 1.65 0 1.18 1.46 1.43 3.26 1.72 2.66.44 5.96.98 5.96 4.69 0 3-2.22 5.26-6.72 5.26zm9.42-21.11c0-1.4 1.02-2.41 2.44-2.41 1.4 0 2.41 1.01 2.41 2.4a2.33 2.33 0 01-2.44 2.39c-1.4 0-2.4-1.02-2.4-2.38zM56.45 60V44.12h4.02V60h-4.02zm8.66 0V44.12h3.62l.25 1.59a6.36 6.36 0 014.66-1.94c3.36 0 6.24 2.28 6.24 6.66V60h-4v-8.94c0-2.37-1.35-3.58-3.22-3.58-1.68 0-3.52.89-3.52 3.58V60H65.1zm26.23.32c-5.26 0-8.4-3.46-8.4-8.18 0-4.82 3.4-8.37 8.21-8.37 4.66 0 7.9 3.14 7.9 7.7 0 .57-.07 1.2-.2 1.81H87.03c.41 2.47 2.03 3.58 4.31 3.58 2.1 0 3.3-.92 3.84-2.28l3.7.76c-.95 3.14-3.7 4.98-7.54 4.98zm-.19-13.22c-1.84 0-3.42.98-4 3.1h7.68c-.35-2.02-1.65-3.1-3.68-3.1zm17.02 13.22c-3.55 0-6.34-1.37-7.22-4.76l4.08-.82c.32 1.65 1.5 2.34 3.14 2.34 1.62 0 2.6-.63 2.6-1.77 0-1.2-1.71-1.36-3.61-1.71-2.57-.41-5.58-1.11-5.58-4.76 0-2.94 2.79-5.07 6.63-5.07 3.58 0 5.73 1.59 6.65 4.4l-3.96.83c-.32-1.36-1.27-2-2.7-2-1.58 0-2.53.7-2.53 1.65 0 1.18 1.46 1.43 3.26 1.72 2.67.44 5.96.98 5.96 4.69 0 3-2.22 5.26-6.72 5.26zm15.45 0c-3.55 0-6.34-1.37-7.23-4.76l4.09-.82c.32 1.65 1.49 2.34 3.14 2.34 1.61 0 2.6-.63 2.6-1.77 0-1.2-1.72-1.36-3.62-1.71-2.56-.41-5.57-1.11-5.57-4.76 0-2.94 2.78-5.07 6.62-5.07 3.58 0 5.73 1.59 6.66 4.4l-3.97.83c-.31-1.36-1.27-2-2.7-2-1.58 0-2.53.7-2.53 1.65 0 1.18 1.46 1.43 3.27 1.72 2.66.44 5.96.98 5.96 4.69 0 3-2.22 5.26-6.72 5.26zm9.13-16.23l-.19-7.86h3.87l-.19 7.86h-3.49zm13 16.23c-3.55 0-6.34-1.37-7.23-4.76l4.09-.82c.32 1.65 1.49 2.34 3.14 2.34 1.61 0 2.6-.63 2.6-1.77 0-1.2-1.72-1.36-3.62-1.71-2.56-.41-5.57-1.11-5.57-4.76 0-2.94 2.78-5.07 6.62-5.07 3.58 0 5.73 1.59 6.65 4.4l-3.96.83c-.31-1.36-1.26-2-2.7-2-1.58 0-2.53.7-2.53 1.65 0 1.18 1.46 1.43 3.27 1.72 2.66.44 5.96.98 5.96 4.69 0 3-2.22 5.26-6.72 5.26zm22.4 0c-3.54 0-6.33-1.37-7.22-4.76l4.09-.82c.31 1.65 1.49 2.34 3.13 2.34 1.62 0 2.6-.63 2.6-1.77 0-1.2-1.7-1.36-3.6-1.71-2.58-.41-5.59-1.11-5.59-4.76 0-2.94 2.8-5.07 6.63-5.07 3.58 0 5.73 1.59 6.65 4.4l-3.96.83c-.32-1.36-1.27-2-2.7-2-1.58 0-2.53.7-2.53 1.65 0 1.18 1.46 1.43 3.27 1.72 2.66.44 5.95.98 5.95 4.69 0 3-2.21 5.26-6.72 5.26zm17.03 0c-5.26 0-8.4-3.46-8.4-8.18 0-4.82 3.4-8.37 8.21-8.37 4.66 0 7.9 3.14 7.9 7.7 0 .57-.07 1.2-.2 1.81h-11.82c.42 2.47 2.03 3.58 4.31 3.58 2.1 0 3.3-.92 3.84-2.28l3.7.76c-.94 3.14-3.7 4.98-7.54 4.98zM185 47.1c-1.83 0-3.42.98-3.99 3.1h7.67c-.35-2.02-1.65-3.1-3.68-3.1zm10.21 4.98c0-4.79 3.52-8.3 8.3-8.3 3.87 0 6.72 2.27 7.45 5.67l-3.99.72a3.4 3.4 0 00-3.49-2.72c-2.4 0-4.09 1.77-4.09 4.63 0 2.82 1.62 4.6 4.03 4.6 2 0 3.3-1.09 3.68-2.77l3.96.67c-.57 3.26-3.62 5.74-7.6 5.74a8 8 0 01-8.25-8.24zM214.05 60V44.12h3.74l.25 1.87a5.06 5.06 0 014.34-2.15c.57 0 .95.06 1.59.22l-.48 3.93a6.22 6.22 0 00-1.65-.22c-2.12 0-3.77 1.45-3.77 4.02V60h-4.02zm19.45.32c-5.26 0-8.4-3.46-8.4-8.18 0-4.82 3.4-8.37 8.2-8.37 4.67 0 7.9 3.14 7.9 7.7 0 .57-.06 1.2-.19 1.81h-11.82c.41 2.47 2.03 3.58 4.3 3.58 2.1 0 3.3-.92 3.84-2.28l3.71.76c-.95 3.14-3.7 4.98-7.54 4.98zm-.2-13.22c-1.83 0-3.42.98-3.99 3.1H237c-.35-2.02-1.65-3.1-3.68-3.1zm9.26-.63l5.93-5.96h1.08v3.61h5.51v3.49h-5.51v6.75c0 1.65.82 2.28 2.25 2.28.7 0 1.36-.19 2.15-.54l.9 3.3c-1.21.6-2.58.92-3.94.92-3.36 0-5.36-1.87-5.36-5.04V47.6h-3v-1.14zm-242.4 35l5.93-5.96h1.07v3.61h5.52v3.49H7.16v6.75c0 1.65.83 2.28 2.25 2.28.7 0 1.37-.19 2.16-.54l.89 3.3c-1.2.6-2.57.92-3.93.92-3.36 0-5.36-1.87-5.36-5.04V82.6H.16v-1.14zm22.29-2.7c4.88 0 8.46 3.52 8.46 8.27 0 4.8-3.58 8.28-8.46 8.28-4.88 0-8.47-3.49-8.47-8.28 0-4.75 3.59-8.27 8.47-8.27zm0 3.68c-2.6 0-4.28 1.84-4.28 4.6 0 2.78 1.68 4.62 4.28 4.62 2.56 0 4.28-1.84 4.28-4.63 0-2.75-1.72-4.6-4.28-4.6zm17.63 4.44c0-4.66 3.3-8.12 7.67-8.12 1.96 0 3.64.8 4.88 2.1l.25-1.75h3.61v15.63c0 4.3-2.91 7.54-8.02 7.54-4.53 0-7.22-2.35-7.76-5.42l4.06-.8c.38 1.66 1.64 2.57 3.7 2.57 2.57 0 4.03-1.36 4.03-3.6v-2a6.68 6.68 0 01-4.75 1.93c-4.38 0-7.67-3.42-7.67-8.08zm4.18 0c0 2.66 1.65 4.43 4.12 4.43s4.12-1.77 4.12-4.43c0-2.67-1.65-4.44-4.12-4.44s-4.12 1.77-4.12 4.44zm24.09 8.43c-5.27 0-8.4-3.46-8.4-8.18 0-4.82 3.39-8.37 8.2-8.37 4.66 0 7.9 3.14 7.9 7.7 0 .57-.07 1.2-.2 1.81H64.05c.4 2.47 2.02 3.58 4.3 3.58 2.1 0 3.3-.92 3.84-2.28l3.7.76c-.94 3.14-3.7 4.98-7.53 4.98zm-.2-13.22c-1.83 0-3.42.98-3.99 3.1h7.67c-.35-2.02-1.65-3.1-3.67-3.1zm9.26-.63l5.93-5.96h1.08v3.61h5.51v3.49h-5.51v6.75c0 1.65.82 2.28 2.25 2.28.7 0 1.36-.19 2.15-.54l.89 3.3c-1.2.6-2.57.92-3.93.92-3.36 0-5.36-1.87-5.36-5.04V82.6h-3v-1.14zm13.62 0l5.93-5.96h1.07v3.61h5.52v3.49h-5.52v6.75c0 1.65.83 2.28 2.25 2.28.7 0 1.37-.19 2.16-.54l.89 3.3c-1.2.6-2.57.92-3.93.92-3.36 0-5.36-1.87-5.36-5.04V82.6h-3.01v-1.14zm14.9-7.26c0-1.4 1.01-2.41 2.44-2.41 1.4 0 2.4 1.01 2.4 2.4a2.33 2.33 0 01-2.43 2.39c-1.4 0-2.41-1.02-2.41-2.38zm.4 20.79V79.12h4.03V95h-4.02zm8.67 0V79.12h3.62l.25 1.59a6.36 6.36 0 014.66-1.94c3.36 0 6.24 2.28 6.24 6.66V95h-3.99v-8.94c0-2.37-1.36-3.58-3.23-3.58-1.68 0-3.52.89-3.52 3.58V95H115zm17.84-8.11c0-4.66 3.3-8.12 7.66-8.12 1.97 0 3.65.8 4.89 2.1l.25-1.75h3.61v15.63c0 4.3-2.91 7.54-8.02 7.54-4.53 0-7.22-2.35-7.76-5.42l4.06-.8c.38 1.66 1.64 2.57 3.7 2.57 2.57 0 4.03-1.36 4.03-3.6v-2a6.68 6.68 0 01-4.75 1.93c-4.38 0-7.67-3.42-7.67-8.08zm4.18 0c0 2.66 1.65 4.43 4.12 4.43s4.12-1.77 4.12-4.43c0-2.67-1.65-4.44-4.12-4.44s-4.12 1.77-4.12 4.44zm21.7-5.42l5.93-5.96h1.07v3.61h5.52v3.49h-5.52v6.75c0 1.65.83 2.28 2.25 2.28.7 0 1.37-.19 2.16-.54l.89 3.3c-1.2.6-2.57.92-3.93.92-3.36 0-5.36-1.87-5.36-5.04V82.6h-3.01v-1.14zm22.29-2.7c4.88 0 8.46 3.52 8.46 8.27 0 4.8-3.58 8.28-8.46 8.28-4.88 0-8.47-3.49-8.47-8.28 0-4.75 3.59-8.27 8.47-8.27zm0 3.68c-2.6 0-4.28 1.84-4.28 4.6 0 2.78 1.68 4.62 4.28 4.62 2.56 0 4.28-1.84 4.28-4.63 0-2.75-1.72-4.6-4.28-4.6z" fill="#fff"/><path d="M1.43 125.78v-3.36h3.39l1.87-6.68H3.68v-3.4h3.96l1.2-4.2h3.65l-1.18 4.2h4.98l1.2-4.2h3.62l-1.2 4.2h2.47v3.4h-3.43l-1.87 6.69h3.01v3.35h-3.96l-1.2 4.22H11.3l1.2-4.22h-5L6.34 130H2.66l1.2-4.22H1.44zm7.03-3.36h5.01l1.87-6.68h-4.98l-1.9 6.69zM29.41 130v-17.08h-4.85v-2.6c3.14-.16 5.07-2.16 5.64-4.09h3.4V130H29.4zm23.93-16.23c4.88 0 8.46 3.52 8.46 8.28 0 4.78-3.58 8.27-8.46 8.27-4.89 0-8.47-3.49-8.47-8.27 0-4.76 3.59-8.28 8.47-8.28zm0 3.68c-2.6 0-4.28 1.84-4.28 4.6 0 2.78 1.68 4.62 4.28 4.62 2.56 0 4.27-1.84 4.27-4.63 0-2.75-1.7-4.6-4.27-4.6zM65.2 130v-15.88h3.6l.26 1.59a6.36 6.36 0 014.66-1.94c3.36 0 6.24 2.29 6.24 6.66V130h-3.99v-8.94c0-2.38-1.36-3.58-3.23-3.58-1.68 0-3.52.89-3.52 3.58V130h-4.02zm31.6.32c-3.55 0-6.33-1.37-7.22-4.76l4.09-.82c.31 1.65 1.49 2.34 3.13 2.34 1.62 0 2.6-.63 2.6-1.77 0-1.2-1.7-1.36-3.61-1.71-2.57-.41-5.58-1.11-5.58-4.76 0-2.94 2.8-5.07 6.63-5.07 3.58 0 5.73 1.59 6.65 4.4l-3.96.83c-.32-1.36-1.27-2-2.7-2-1.58 0-2.53.7-2.53 1.65 0 1.18 1.46 1.43 3.26 1.71 2.67.45 5.96.99 5.96 4.7 0 3-2.22 5.26-6.72 5.26zm17.03 0c-5.26 0-8.4-3.46-8.4-8.18 0-4.82 3.4-8.37 8.21-8.37 4.66 0 7.9 3.14 7.9 7.7 0 .58-.07 1.2-.2 1.81h-11.82c.41 2.47 2.03 3.58 4.31 3.58 2.1 0 3.3-.92 3.84-2.28l3.7.76c-.94 3.14-3.7 4.98-7.54 4.98zm-.19-13.22c-1.84 0-3.42.98-4 3.1h7.68c-.35-2.02-1.65-3.1-3.68-3.1zm21.02 12.9l-.25-2.22a6.29 6.29 0 01-5.23 2.54c-2.86 0-5.14-1.65-5.14-4.7 0-3.26 2.79-4.53 6.15-5.29l4.06-.92c-.35-1.61-1.46-2.28-3.08-2.28-1.84 0-3 .8-3.42 2.44l-3.8-.7c.76-3 3.3-5.1 7.29-5.1 4.21 0 6.97 2.22 6.97 6.66V130h-3.55zm-6.53-4.63c0 1.08.73 1.65 1.9 1.65 2.12 0 4.31-1.36 4.31-4.25v-.38l-3.93.99c-1.36.31-2.28.79-2.28 2zm14.38 4.63v-15.88h3.74l.25 1.87a5.06 5.06 0 014.35-2.15c.57 0 .95.06 1.58.22l-.47 3.93a6.24 6.24 0 00-1.65-.22c-2.13 0-3.77 1.45-3.77 4.02V130h-4.03zm11.05-7.92c0-4.79 3.52-8.3 8.3-8.3 3.87 0 6.72 2.28 7.45 5.67l-3.99.72a3.4 3.4 0 00-3.49-2.72c-2.4 0-4.08 1.77-4.08 4.63 0 2.82 1.61 4.6 4.02 4.6 2 0 3.3-1.09 3.68-2.77l3.96.67c-.57 3.27-3.61 5.74-7.6 5.74a8 8 0 01-8.25-8.24zm18.85 7.92v-23.77h4.02v9.32a6.37 6.37 0 014.5-1.78c3.36 0 6.25 2.29 6.25 6.66V130h-4v-8.94c0-2.38-1.36-3.58-3.23-3.58-1.68 0-3.52.92-3.52 3.58V130h-4.02zm23.96-24.09c4.18 0 7.48 2.41 7.48 6.5 0 5.8-6.66 5.83-6.66 9.06v.8h-4.18v-1.08c0-4.98 6.53-5.36 6.53-8.65 0-1.87-1.43-2.89-3.33-2.89a3.85 3.85 0 00-4.03 3.3l-3.93-.83c.67-3.77 3.84-6.24 8.12-6.2zm-1.14 24.4c-1.56 0-2.67-1-2.67-2.56 0-1.58 1.11-2.63 2.67-2.63 1.58 0 2.69 1.05 2.69 2.63 0 1.55-1.11 2.57-2.7 2.57z" fill="#FF0"/></svg>